<?xml version="1.0" encoding="UTF-8" standalone="no"?>
<!-- Created with Inkscape (http://www.inkscape.org/) -->

<svg
   width="40.614319mm"
   height="39.476841mm"
   viewBox="0 0 40.614319 39.476842"
   version="1.1"
   id="svg5"
   inkscape:version="1.3 (0e150ed6c4, 2023-07-21)"
   sodipodi:docname="image_titre.svg"
   xml:space="preserve"
   inkscape:export-filename="image_titre.png"
   inkscape:export-xdpi="450"
   inkscape:export-ydpi="450"
   xmlns:inkscape="http://www.inkscape.org/namespaces/inkscape"
   xmlns:sodipodi="http://sodipodi.sourceforge.net/DTD/sodipodi-0.dtd"
   xmlns="http://www.w3.org/2000/svg"
   xmlns:svg="http://www.w3.org/2000/svg"><sodipodi:namedview
     id="namedview7"
     pagecolor="#ffffff"
     bordercolor="#666666"
     borderopacity="1.0"
     inkscape:showpageshadow="2"
     inkscape:pageopacity="0.0"
     inkscape:pagecheckerboard="0"
     inkscape:deskcolor="#d1d1d1"
     inkscape:document-units="mm"
     showgrid="false"
     inkscape:zoom="4.7572176"
     inkscape:cx="23.543174"
     inkscape:cy="58.647727"
     inkscape:window-width="2400"
     inkscape:window-height="1261"
     inkscape:window-x="-9"
     inkscape:window-y="-9"
     inkscape:window-maximized="1"
     inkscape:current-layer="g1939" /><defs
     id="defs2" /><g
     inkscape:label="Calque 1"
     inkscape:groupmode="layer"
     id="layer1"
     transform="translate(-83.81383,-77.960238)"><g
       id="g1939"><text
         xml:space="preserve"
         style="font-weight:900;font-size:4.58611px;line-height:100%;font-family:Roboto;-inkscape-font-specification:'Roboto Heavy';letter-spacing:0px;word-spacing:0px;fill:#579aca;fill-opacity:1;stroke-width:0.199071"
         x="84.543869"
         y="82.207108"
         id="text372-4-9-6"><tspan
           sodipodi:role="line"
           x="84.543869"
           y="82.207108"
           style="font-style:normal;font-variant:normal;font-weight:normal;font-stretch:normal;font-size:4.58611px;font-family:Roboto;-inkscape-font-specification:Roboto;fill:#579aca;fill-opacity:1;stroke-width:0.199071"
           id="tspan1595-5"><tspan
             style="font-style:normal;font-variant:normal;font-weight:bold;font-stretch:normal;font-size:4.58611px;font-family:Roboto;-inkscape-font-specification:'Roboto Bold';fill:#ad70ff;fill-opacity:1"
             id="tspan1">A</tspan><tspan
             style="fill:#666666;fill-opacity:1"
             id="tspan14">dvanced </tspan></tspan><tspan
           sodipodi:role="line"
           x="84.543869"
           y="86.793221"
           style="font-style:normal;font-variant:normal;font-weight:normal;font-stretch:normal;font-size:4.58611px;font-family:Roboto;-inkscape-font-specification:Roboto;fill:#579aca;fill-opacity:1;stroke-width:0.199071"
           id="tspan5"><tspan
   style="font-style:normal;font-variant:normal;font-weight:bold;font-stretch:normal;font-size:4.58611px;font-family:Roboto;-inkscape-font-specification:'Roboto Bold';fill:#ad70ff;fill-opacity:1"
   id="tspan6">M</tspan><tspan
   style="fill:#666666;fill-opacity:1"
   id="tspan13">anufacturing and</tspan> </tspan><tspan
           sodipodi:role="line"
           x="84.543869"
           y="91.379326"
           style="font-style:normal;font-variant:normal;font-weight:normal;font-stretch:normal;font-size:4.58611px;font-family:Roboto;-inkscape-font-specification:Roboto;fill:#579aca;fill-opacity:1;stroke-width:0.199071"
           id="tspan7"><tspan
   style="font-style:normal;font-variant:normal;font-weight:bold;font-stretch:normal;font-family:Roboto;-inkscape-font-specification:'Roboto Bold';fill:#ad70ff;fill-opacity:1"
   id="tspan9">S</tspan><tspan
   style="fill:#666666;fill-opacity:1"
   id="tspan12">mart</tspan> </tspan><tspan
           sodipodi:role="line"
           x="84.543869"
           y="95.965439"
           style="font-style:normal;font-variant:normal;font-weight:normal;font-stretch:normal;font-size:4.58611px;font-family:Roboto;-inkscape-font-specification:Roboto;fill:#579aca;fill-opacity:1;stroke-width:0.199071"
           id="tspan8"><tspan
             style="font-style:normal;font-variant:normal;font-weight:bold;font-stretch:normal;font-family:Roboto;-inkscape-font-specification:'Roboto Bold';fill:#ad70ff;fill-opacity:1"
             id="tspan10">S</tspan><tspan
             style="fill:#666666;fill-opacity:1"
             id="tspan11">ystems</tspan></tspan></text><path
         id="path4"
         d="M 87.374914,99.175662 H 121.0217"
         style="fill:none;stroke:#5a003c;stroke-width:0.247934;stroke-linecap:butt;stroke-linejoin:miter;stroke-miterlimit:4;stroke-dasharray:0.247934, 0.247934;stroke-dashoffset:0;stroke-opacity:1" /><path
         id="path10"
         d="m 120.27175,102.23264 c -0.53115,0 -0.96237,0.43122 -0.96237,0.96169 0,0.53115 0.43122,0.96238 0.96237,0.96238 0.53136,0 0.96258,-0.43123 0.96258,-0.96238 0,-0.53047 -0.43122,-0.96169 -0.96258,-0.96169"
         style="fill:#5a003c;fill-opacity:1;fill-rule:nonzero;stroke:none;stroke-width:0.227082" /><path
         id="path11"
         d="m 118.19712,105.59981 c 0.32905,0 0.59518,-0.26614 0.59518,-0.59518 0,-0.32813 -0.26613,-0.59427 -0.59518,-0.59427 -0.32836,0 -0.59518,0.26614 -0.59518,0.59427 0,0.32904 0.26682,0.59518 0.59518,0.59518"
         style="fill:#5a003c;fill-opacity:1;fill-rule:nonzero;stroke:none;stroke-width:0.227082" /><path
         id="path12"
         d="m 95.832946,106.61033 h 0.640376 v 3.6031 h -0.640376 z"
         style="fill:#5a003c;fill-opacity:1;fill-rule:nonzero;stroke:none;stroke-width:0.227082" /><path
         id="path13"
         d="m 103.09617,106.53653 c -0.98736,0 -1.73151,0.80727 -1.73151,1.87887 0,1.0707 0.77344,1.87865 1.79895,1.87865 0.60586,0 1.06252,-0.20846 1.48035,-0.6733 l 0.04,-0.0452 -0.41237,-0.36901 -0.04,0.0418 c -0.30883,0.32292 -0.6431,0.4728 -1.0548,0.4728 -0.61017,0 -1.06797,-0.42147 -1.15743,-1.0573 h 2.74791 l 0.007,-0.0533 c 0.008,-0.0637 0.008,-0.11967 0.008,-0.1685 0,-1.13994 -0.67693,-1.90544 -1.68449,-1.90544 m -1.07683,1.6225 c 0.0876,-0.62992 0.51707,-1.06365 1.06343,-1.06365 0.67602,0 0.98031,0.53751 1.04412,1.06365 h -2.10755"
         style="fill:#5a003c;fill-opacity:1;fill-rule:nonzero;stroke:none;stroke-width:0.227082" /><path
         id="path14"
         d="m 89.688564,110.21343 h 0.633332 v -3.6031 h -0.633332 v 2.05418 c 0,0.60677 -0.403751,1.03005 -0.983719,1.03005 -0.565207,0 -0.902196,-0.36992 -0.902196,-0.99007 v -2.09416 h -0.640372 v 2.222 c 0,0.88334 0.547268,1.45468 1.394283,1.45468 0.474601,0 0.846334,-0.17916 1.132004,-0.54727 v 0.47369"
         style="fill:#5a003c;fill-opacity:1;fill-rule:nonzero;stroke:none;stroke-width:0.227082" /><path
         id="path15"
         d="m 94.027874,108.11907 v 2.09436 h 0.639691 v -2.2229 c 0,-0.88357 -0.547496,-1.454 -1.394511,-1.454 -0.472784,0 -0.852466,0.1828 -1.131777,0.54477 v -0.47097 h -0.640598 v 3.6031 h 0.640598 v -2.0544 c 0,-0.60677 0.404433,-1.02982 0.98372,-1.02982 0.564979,0 0.902877,0.36992 0.902877,0.98986"
         style="fill:#5a003c;fill-opacity:1;fill-rule:nonzero;stroke:none;stroke-width:0.227082" /><path
         id="path16"
         d="m 99.417663,110.24 1.568237,-3.62967 h -0.69283 l -1.138138,2.7888 -1.131774,-2.7888 h -0.705319 l 1.561185,3.62967 h 0.538639"
         style="fill:#5a003c;fill-opacity:1;fill-rule:nonzero;stroke:none;stroke-width:0.227082" /><path
         id="path17"
         d="m 106.34367,108.76579 c 0,-0.93331 0.51797,-1.53553 1.32071,-1.53553 h 0.1011 v -0.67761 l -0.0586,-0.002 c -0.55885,-0.0232 -1.05458,0.26796 -1.36318,0.7814 v -0.72099 h -0.6406 v 3.60219 h 0.6406 v -1.44672"
         style="fill:#5a003c;fill-opacity:1;fill-rule:nonzero;stroke:none;stroke-width:0.227082" /><path
         id="path18"
         d="m 115.22893,110.27362 c 0.24322,0 0.45076,-0.0494 0.65468,-0.15511 l 0.0329,-0.0168 v -0.57747 l -0.0869,0.0417 c -0.1703,0.0817 -0.3086,0.11536 -0.47891,0.11536 -0.35856,0 -0.52524,-0.16508 -0.52524,-0.51888 v -1.97289 h 1.1043 v -0.57906 h -1.1043 v -1.18787 l -0.64038,0.35311 v 0.83476 h -0.67601 v 0.57906 h 0.67601 v 2.04123 c 0,0.67241 0.37083,1.04299 1.0439,1.04299"
         style="fill:#5a003c;fill-opacity:1;fill-rule:nonzero;stroke:none;stroke-width:0.227082" /><path
         id="path19"
         d="m 118.30362,110.29405 c 0.60562,0 1.06252,-0.20846 1.47944,-0.6733 l 0.0409,-0.0452 -0.41262,-0.36901 -0.0398,0.0418 c -0.30885,0.32292 -0.64401,0.4728 -1.0548,0.4728 -0.61017,0 -1.06888,-0.42147 -1.15767,-1.05661 h 2.74725 l 0.007,-0.0541 c 0.008,-0.0638 0.008,-0.11967 0.008,-0.16851 0,-1.13994 -0.67692,-1.90543 -1.68449,-1.90543 -0.98734,0 -1.73149,0.80819 -1.73149,1.87888 0,1.07069 0.77344,1.87864 1.79894,1.87864 m -0.0808,-3.19867 c 0.6751,0 0.9794,0.53751 1.04412,1.06365 h -2.10778 c 0.0869,-0.62992 0.51728,-1.06365 1.06366,-1.06365"
         style="fill:#5a003c;fill-opacity:1;fill-rule:nonzero;stroke:none;stroke-width:0.227082" /><path
         id="path20"
         d="m 109.91839,108.10748 -0.0126,-0.003 c -0.4319,-0.13124 -0.83998,-0.25546 -0.83998,-0.5509 0,-0.26523 0.24572,-0.44439 0.61291,-0.44439 0.31677,0 0.67148,0.11626 0.99803,0.32723 l 0.0521,0.0339 0.29815,-0.49412 -0.0489,-0.0321 c -0.37354,-0.24661 -0.85429,-0.39375 -1.28618,-0.39375 -0.73371,0 -1.24647,0.43463 -1.24647,1.05729 v 0.0134 c 0,0.70168 0.69192,0.89857 1.19673,1.0414 0.46733,0.13034 0.82408,0.25455 0.82408,0.5677 0,0.29453 -0.26523,0.49141 -0.6599,0.49141 -0.38786,0 -0.7923,-0.14896 -1.16924,-0.43215 l -0.0498,-0.0373 -0.33245,0.46756 0.0443,0.0354 c 0.40079,0.32382 0.96782,0.52616 1.48034,0.52616 0.77797,0 1.30051,-0.4444 1.30051,-1.10544 v -0.0132 c 0,-0.70624 -0.69988,-0.91538 -1.162,-1.05481"
         style="fill:#5a003c;fill-opacity:1;fill-rule:nonzero;stroke:none;stroke-width:0.227082" /><path
         id="path21"
         d="m 112.10407,106.61033 h 0.64036 v 3.6031 h -0.64036 z"
         style="fill:#5a003c;fill-opacity:1;fill-rule:nonzero;stroke:none;stroke-width:0.227082" /><path
         id="path22"
         d="m 90.758348,111.37543 -1.177195,2.76493 h 0.616529 l 0.250925,-0.61561 h 1.161298 l 0.250925,0.61561 h 0.632425 l -1.176967,-2.76493 z m -0.09402,1.61522 0.365374,-0.88972 0.364694,0.88972 z"
         style="fill:#5a003c;fill-opacity:1;fill-rule:nonzero;stroke:none;stroke-width:0.227082" /><path
         id="path23"
         d="m 115.48009,111.37543 -1.17719,2.76493 h 0.61651 l 0.25116,-0.61561 h 1.16107 l 0.25092,0.61561 h 0.63266 l -1.1781,-2.76493 z m -0.094,1.61522 0.36537,-0.88972 0.36469,0.88972 z"
         style="fill:#5a003c;fill-opacity:1;fill-rule:nonzero;stroke:none;stroke-width:0.227082" /><path
         id="path24"
         d="m 118.58021,112.49652 -0.65536,-1.10157 h -0.70713 l 1.05662,1.66315 v 1.08226 h 0.60403 v -1.09384 l 1.05548,-1.65157 h -0.68647 l -0.66717,1.10157"
         style="fill:#5a003c;fill-opacity:1;fill-rule:nonzero;stroke:none;stroke-width:0.227082" /><path
         id="path25"
         d="m 88.298595,111.39495 h -1.123148 v 2.74541 h 0.604947 v -0.82316 h 0.458705 c 0.616528,0 1.110658,-0.32995 1.110658,-0.96511 v -0.008 c 0,-0.56067 -0.396484,-0.9492 -1.051162,-0.9492 m 0.43895,0.96849 c 0,0.23617 -0.176443,0.41625 -0.478917,0.41625 h -0.478234 v -0.8393 h 0.466654 c 0.302473,0 0.490497,0.14466 0.490497,0.41511 v 0.008"
         style="fill:#5a003c;fill-opacity:1;fill-rule:nonzero;stroke:none;stroke-width:0.227082" /><path
         id="path26"
         d="m 109.93066,113.63034 c -0.47098,0 -0.79638,-0.39218 -0.79638,-0.86223 v -0.008 c 0,-0.47121 0.33336,-0.8552 0.79638,-0.8552 0.27499,0 0.49072,0.11786 0.70259,0.30952 l 0.38491,-0.44258 c -0.25548,-0.25092 -0.56499,-0.42397 -1.08387,-0.42397 -0.8427,0 -1.43175,0.63946 -1.43175,1.42017 v 0.007 c 0,0.78867 0.60063,1.41223 1.40858,1.41223 0.52956,0 0.84362,-0.18802 1.12656,-0.4905 l -0.3849,-0.38853 c -0.21551,0.19688 -0.40807,0.322 -0.72212,0.322"
         style="fill:#5a003c;fill-opacity:1;fill-rule:nonzero;stroke:none;stroke-width:0.227082" /><path
         id="path27"
         d="m 103.77287,112.49652 c -0.47551,-0.12149 -0.59336,-0.18007 -0.59336,-0.36015 v -0.008 c 0,-0.13375 0.12149,-0.23934 0.35402,-0.23934 0.23139,0 0.47097,0.10198 0.71394,0.27045 l 0.31406,-0.45507 c -0.27863,-0.22255 -0.62016,-0.34857 -1.02005,-0.34857 -0.56157,0 -0.9626,0.32904 -0.9626,0.82771 v 0.008 c 0,0.54453 0.35765,0.69712 0.91105,0.83906 0.45961,0.11808 0.55272,0.19598 0.55272,0.34857 v 0.008 c 0,0.16144 -0.1492,0.25909 -0.39558,0.25909 -0.31406,0 -0.57316,-0.12943 -0.82068,-0.33359 l -0.35743,0.4276 c 0.32996,0.29453 0.75051,0.43986 1.16653,0.43986 0.59244,0 1.00847,-0.30679 1.00847,-0.85155 v -0.008 c 0,-0.47801 -0.31406,-0.67852 -0.87109,-0.82408"
         style="fill:#5a003c;fill-opacity:1;fill-rule:nonzero;stroke:none;stroke-width:0.227082" /><path
         id="path28"
         d="m 112.41879,111.39495 h -0.60403 v 2.74541 h 1.97379 v -0.54817 h -1.36976 v -2.19724"
         style="fill:#5a003c;fill-opacity:1;fill-rule:nonzero;stroke:none;stroke-width:0.227082" /><path
         id="path29"
         d="m 106.34707,111.37543 -1.17628,2.76493 h 0.61562 l 0.25115,-0.61561 h 1.16198 l 0.25116,0.61561 h 0.63151 l -1.17811,-2.76493 z m -0.094,1.61522 0.36539,-0.88972 0.36469,0.88972 z"
         style="fill:#5a003c;fill-opacity:1;fill-rule:nonzero;stroke:none;stroke-width:0.227082" /><path
         id="path30"
         d="m 100.62914,112.63845 h 1.20809 v 0.57225 h -1.20809 z"
         style="fill:#5a003c;fill-opacity:1;fill-rule:nonzero;stroke:none;stroke-width:0.227082" /><path
         id="path31"
         d="m 95.502999,112.30849 v -0.007 c 0,-0.56589 -0.388535,-0.90651 -1.035947,-0.90651 H 93.21106 v 2.74542 h 0.604947 v -0.87813 h 0.474373 l 0.589052,0.87813 h 0.706226 l -0.670804,-0.98031 c 0.349483,-0.12943 0.588145,-0.40806 0.588145,-0.85156 m -0.611988,0.0321 c 0,0.23139 -0.168494,0.38855 -0.463018,0.38855 h -0.611986 v -0.78867 h 0.600406 c 0.294525,0 0.474598,0.13307 0.474598,0.39217 v 0.008"
         style="fill:#5a003c;fill-opacity:1;fill-rule:nonzero;stroke:none;stroke-width:0.227082" /><path
         id="path32"
         d="m 96.370678,111.39495 h 0.604947 v 2.74541 h -0.604947 z"
         style="fill:#5a003c;fill-opacity:1;fill-rule:nonzero;stroke:none;stroke-width:0.227082" /><path
         id="path33"
         d="m 99.070684,112.49652 c -0.474603,-0.12149 -0.592457,-0.18007 -0.592457,-0.36015 v -0.008 c 0,-0.13375 0.12149,-0.23934 0.353111,-0.23934 0.232304,0 0.470969,0.10198 0.713945,0.27045 l 0.31406,-0.45507 c -0.278632,-0.22255 -0.620163,-0.34857 -1.020055,-0.34857 -0.561573,0 -0.961696,0.32904 -0.961696,0.82771 v 0.008 c 0,0.54453 0.357433,0.69712 0.910149,0.83906 0.459613,0.11808 0.553625,0.19598 0.553625,0.34857 v 0.008 c 0,0.16144 -0.149197,0.25909 -0.395803,0.25909 -0.313828,0 -0.572929,-0.12943 -0.82045,-0.33359 l -0.357426,0.4276 c 0.329953,0.29453 0.749599,0.43986 1.165614,0.43986 0.592458,0 1.008466,-0.30679 1.008466,-0.85155 v -0.008 c 0,-0.47801 -0.314052,-0.67852 -0.871083,-0.82408"
         style="fill:#5a003c;fill-opacity:1;fill-rule:nonzero;stroke:none;stroke-width:0.227082" /></g></g></svg>
